<?xml version="1.0" encoding="utf-8"?>
<!-- Generator: Adobe Illustrator 15.1.0, SVG Export Plug-In . SVG Version: 6.00 Build 0)  -->
<!DOCTYPE svg PUBLIC "-//W3C//DTD SVG 1.1//EN" "http://www.w3.org/Graphics/SVG/1.1/DTD/svg11.dtd">
<svg version="1.1" id="Layer_1" xmlns="http://www.w3.org/2000/svg" xmlns:xlink="http://www.w3.org/1999/xlink" x="0px" y="0px"
	 width="20px" height="20px" viewBox="0 0 20 20" enable-background="new 0 0 20 20" xml:space="preserve">
<g>
	<path fill="#FFFFFF" d="M20,11.402c0,0.453-0.367,0.82-0.822,0.82H0.82c-0.453,0-0.82-0.367-0.82-0.82V8.598
		c0-0.454,0.367-0.821,0.82-0.821h18.357C19.633,7.776,20,8.144,20,8.598V11.402z"/>
	<path fill="#FFFFFF" d="M8.598,20c-0.453,0-0.821-0.367-0.821-0.82V0.821c0-0.452,0.368-0.82,0.821-0.82h2.804
		c0.453,0,0.82,0.368,0.82,0.82V19.18c0,0.453-0.367,0.82-0.82,0.82H8.598z"/>
</g>
</svg>
